<?xml version="1.0" encoding="iso-8859-1"?>
<!-- Generator: Adobe Illustrator 19.0.0, SVG Export Plug-In . SVG Version: 6.00 Build 0)  -->
<svg version="1.1" id="Capa_1" xmlns="http://www.w3.org/2000/svg" xmlns:xlink="http://www.w3.org/1999/xlink" x="0px" y="0px"
	 viewBox="0 0 511.999 511.999" style="enable-background:new 0 0 511.999 511.999;" xml:space="preserve">
<path style="fill:#FFFFFF;" d="M90.652,7.501h261.284l77.254,77.254c0,4.892,0,404.488,0,413.971c0,3.188-2.585,5.773-5.772,5.773
	H89.898c-3.923,0-7.104-3.181-7.104-7.104c0-21.359,0-459.652,0-482.035C82.794,11.02,86.312,7.501,90.652,7.501z"/>
<g>
	<path style="fill:#E4EAF8;" d="M102.795,497.396c0-21.359,0-459.652,0-482.035c0-4.34,3.518-7.858,7.858-7.858H90.652
		c-4.34,0-7.858,3.518-7.858,7.858c0,22.383,0,460.676,0,482.035c0,3.923,3.181,7.104,7.104,7.104H109.9
		C105.976,504.501,102.795,501.319,102.795,497.396z"/>
	<path style="fill:#E4EAF8;" d="M351.936,78.562V7.501l77.254,77.254h-71.06C354.709,84.756,351.936,81.983,351.936,78.562z"/>
</g>
<path style="fill:#C2C7D0;" d="M371.938,78.562V27.503L351.936,7.501v71.06c0,3.421,2.773,6.194,6.193,6.194h20.001
	C374.711,84.756,371.938,81.983,371.938,78.562z"/>
<path style="fill:#FFC850;" d="M254.634,65.173H150.82c-3.304,0-5.983,2.679-5.983,5.983v105.97c0,3.304,2.679,5.983,5.983,5.983
	h103.814c3.304,0,5.983-2.679,5.983-5.983V71.157C260.618,67.852,257.939,65.173,254.634,65.173z"/>
<circle style="fill:#FFFFFF;" cx="202.731" cy="110.418" r="21.76"/>
<path style="fill:#92E0C0;" d="M212.035,137.737h-18.614c-12.101,0-21.911,9.81-21.911,21.911v23.462h62.437v-23.462
	C233.945,147.547,224.136,137.737,212.035,137.737z"/>
<path style="fill:#FEA82F;" d="M164.838,177.127V71.157c0-3.305,2.679-5.983,5.983-5.983H150.82c-3.304,0-5.983,2.679-5.983,5.983
	v105.97c0,3.304,2.679,5.983,5.983,5.983h20.001C167.516,183.111,164.838,180.432,164.838,177.127z"/>
<path style="fill:#E4EAF8;" d="M200.968,110.421c0-8.412,4.775-15.703,11.76-19.324c-2.995-1.553-6.393-2.436-10.001-2.436
	c-12.018,0-21.76,9.743-21.76,21.76s9.743,21.76,21.76,21.76c3.607,0,7.005-0.883,10.001-2.436
	C205.743,126.124,200.968,118.832,200.968,110.421z"/>
<path style="fill:#6DC296;" d="M212.728,137.755c-0.231-0.007-0.461-0.017-0.693-0.017h-18.614c-12.101,0-21.911,9.81-21.911,21.911
	v23.462h20.001V159.65C191.511,147.78,200.949,138.122,212.728,137.755z"/>
<g>
	<path style="fill:#AFB5BC;" d="M350.114,281.306H193.491c-4.142,0-7.5-3.358-7.5-7.5s3.358-7.5,7.5-7.5h156.623
		c4.142,0,7.5,3.358,7.5,7.5S354.256,281.306,350.114,281.306z"/>
	<path style="fill:#AFB5BC;" d="M303.056,239.602h-98.655c-4.142,0-7.5-3.358-7.5-7.5c0-4.142,3.358-7.5,7.5-7.5h98.655
		c4.142,0,7.5,3.358,7.5,7.5C310.557,236.243,307.199,239.602,303.056,239.602z"/>
	<path style="fill:#AFB5BC;" d="M350.114,323.01H193.491c-4.142,0-7.5-3.358-7.5-7.5s3.358-7.5,7.5-7.5h156.623
		c4.142,0,7.5,3.358,7.5,7.5S354.256,323.01,350.114,323.01z"/>
	<path style="fill:#AFB5BC;" d="M303.056,364.712h-95.676c-4.142,0-7.5-3.358-7.5-7.5c0-4.142,3.358-7.5,7.5-7.5h95.676
		c4.142,0,7.5,3.358,7.5,7.5C310.557,361.354,307.199,364.712,303.056,364.712z"/>
	<path style="fill:#AFB5BC;" d="M350.114,406.417H193.491c-4.142,0-7.5-3.358-7.5-7.5c0-4.142,3.358-7.5,7.5-7.5h156.623
		c4.142,0,7.5,3.358,7.5,7.5C357.615,403.058,354.256,406.417,350.114,406.417z"/>
	<path style="fill:#AFB5BC;" d="M350.114,448.12H193.491c-4.142,0-7.5-3.358-7.5-7.5s3.358-7.5,7.5-7.5h156.623
		c4.142,0,7.5,3.358,7.5,7.5S354.256,448.12,350.114,448.12z"/>
</g>
<g>
	<path style="fill:#FF9052;" d="M157.378,281.306h-5.589c-4.142,0-7.5-3.358-7.5-7.5s3.358-7.5,7.5-7.5h5.589
		c4.142,0,7.5,3.358,7.5,7.5S161.52,281.306,157.378,281.306z"/>
	<path style="fill:#FF9052;" d="M157.378,323.01h-5.589c-4.142,0-7.5-3.358-7.5-7.5s3.358-7.5,7.5-7.5h5.589
		c4.142,0,7.5,3.358,7.5,7.5S161.52,323.01,157.378,323.01z"/>
	<path style="fill:#FF9052;" d="M157.378,406.417h-5.589c-4.142,0-7.5-3.358-7.5-7.5c0-4.142,3.358-7.5,7.5-7.5h5.589
		c4.142,0,7.5,3.358,7.5,7.5C164.878,403.058,161.52,406.417,157.378,406.417z"/>
	<path style="fill:#FF9052;" d="M157.378,448.12h-5.589c-4.142,0-7.5-3.358-7.5-7.5s3.358-7.5,7.5-7.5h5.589
		c4.142,0,7.5,3.358,7.5,7.5S161.52,448.12,157.378,448.12z"/>
</g>
<path style="fill:#474D54;" d="M429.197,246c4.142,0,7.5-3.358,7.5-7.5V84.756c0-0.001,0-0.002,0-0.004
	c0-0.057-0.001-0.113-0.002-0.169c0-0.008,0-0.017-0.001-0.025c-0.002-0.058-0.004-0.116-0.006-0.174l0,0
	c-0.003-0.057-0.006-0.114-0.011-0.171c-0.001-0.014-0.002-0.028-0.003-0.042c-0.003-0.042-0.007-0.084-0.011-0.126
	c-0.002-0.017-0.003-0.033-0.005-0.05c-0.005-0.049-0.01-0.097-0.016-0.146c-0.002-0.013-0.003-0.025-0.005-0.038
	c-0.006-0.046-0.012-0.091-0.019-0.137c-0.003-0.023-0.007-0.046-0.01-0.068c-0.005-0.032-0.01-0.064-0.015-0.095
	c-0.004-0.022-0.007-0.044-0.011-0.066c-0.009-0.049-0.018-0.098-0.028-0.147c-0.003-0.016-0.007-0.033-0.01-0.049
	c-0.008-0.038-0.016-0.076-0.024-0.113c-0.005-0.023-0.01-0.045-0.015-0.068c-0.008-0.033-0.016-0.066-0.024-0.099
	c-0.005-0.02-0.009-0.039-0.014-0.059c-0.013-0.05-0.026-0.099-0.039-0.148c-0.005-0.017-0.01-0.033-0.014-0.05
	c-0.01-0.037-0.021-0.074-0.032-0.111c-0.006-0.019-0.011-0.038-0.017-0.057c-0.011-0.036-0.023-0.072-0.034-0.108
	c-0.005-0.017-0.011-0.033-0.016-0.05c-0.017-0.051-0.034-0.101-0.052-0.152c-0.004-0.01-0.008-0.02-0.011-0.031
	c-0.016-0.043-0.032-0.086-0.048-0.13c-0.005-0.013-0.01-0.026-0.015-0.039c-0.017-0.044-0.035-0.089-0.053-0.133
	c-0.003-0.008-0.006-0.016-0.009-0.023c-0.022-0.054-0.045-0.107-0.069-0.161c-0.001-0.002-0.002-0.004-0.003-0.006
	c-0.022-0.049-0.045-0.099-0.068-0.148c-0.004-0.009-0.009-0.018-0.013-0.028c-0.023-0.049-0.047-0.097-0.071-0.146
	c-0.001-0.002-0.002-0.005-0.003-0.007c-0.027-0.053-0.054-0.107-0.083-0.16c-0.001-0.001-0.002-0.003-0.003-0.005
	c-0.026-0.049-0.053-0.098-0.081-0.147c-0.004-0.007-0.008-0.014-0.012-0.021c-0.027-0.047-0.054-0.094-0.082-0.141
	c-0.002-0.003-0.003-0.006-0.005-0.009c-0.06-0.1-0.123-0.199-0.188-0.297c-0.005-0.007-0.01-0.015-0.015-0.022
	c-0.029-0.042-0.057-0.085-0.087-0.127c-0.004-0.006-0.009-0.012-0.013-0.019c-0.034-0.048-0.068-0.095-0.103-0.143
	c-0.001-0.002-0.002-0.003-0.003-0.005c-0.032-0.043-0.065-0.086-0.098-0.128c-0.008-0.011-0.017-0.022-0.026-0.033
	c-0.028-0.036-0.057-0.072-0.086-0.107C435.007,80.009,435,80,434.993,79.99c-0.036-0.044-0.073-0.088-0.111-0.132
	c-0.002-0.002-0.004-0.005-0.006-0.007c-0.034-0.04-0.069-0.079-0.104-0.118c-0.011-0.013-0.023-0.025-0.035-0.038
	c-0.027-0.029-0.054-0.059-0.082-0.088c-0.012-0.013-0.025-0.026-0.037-0.039c-0.038-0.04-0.077-0.08-0.117-0.12L357.245,2.196
	c-0.04-0.039-0.08-0.078-0.12-0.117c-0.011-0.011-0.022-0.021-0.034-0.032c-0.032-0.03-0.064-0.06-0.096-0.089
	c-0.01-0.01-0.021-0.019-0.031-0.028c-0.085-0.077-0.172-0.152-0.261-0.225c-0.008-0.006-0.016-0.013-0.024-0.019
	c-0.038-0.031-0.076-0.061-0.114-0.091c-0.008-0.006-0.016-0.013-0.024-0.019c-0.093-0.072-0.187-0.142-0.283-0.209
	c-0.004-0.002-0.007-0.005-0.011-0.008c-0.045-0.031-0.09-0.062-0.135-0.093c-0.005-0.004-0.011-0.007-0.016-0.011
	c-0.099-0.066-0.199-0.129-0.301-0.19c-0.003-0.002-0.006-0.004-0.01-0.006c-0.046-0.028-0.093-0.055-0.14-0.081
	c-0.007-0.004-0.015-0.008-0.022-0.012c-0.047-0.027-0.095-0.053-0.142-0.078c-0.003-0.002-0.007-0.004-0.01-0.005
	c-0.051-0.027-0.103-0.054-0.154-0.08c-0.008-0.004-0.015-0.007-0.022-0.011c-0.042-0.021-0.084-0.042-0.127-0.062
	c-0.014-0.007-0.028-0.013-0.042-0.02c-0.041-0.019-0.081-0.038-0.122-0.056c-0.01-0.005-0.02-0.009-0.03-0.013
	c-0.049-0.021-0.098-0.043-0.147-0.063c-0.019-0.008-0.038-0.016-0.057-0.023c-0.03-0.012-0.059-0.024-0.089-0.036
	c-0.024-0.01-0.049-0.019-0.073-0.028c-0.026-0.01-0.051-0.019-0.077-0.029c-0.065-0.024-0.131-0.047-0.197-0.07
	c-0.002-0.001-0.004-0.001-0.006-0.002c-0.034-0.011-0.068-0.022-0.102-0.033c-0.015-0.005-0.03-0.01-0.046-0.015
	c-0.034-0.011-0.069-0.021-0.103-0.031c-0.011-0.003-0.022-0.007-0.034-0.01c-0.121-0.035-0.243-0.068-0.366-0.097
	c-0.003-0.001-0.005-0.001-0.008-0.002c-0.35-0.083-0.707-0.141-1.068-0.172c-0.003,0-0.005,0-0.007-0.001
	c-0.129-0.011-0.259-0.019-0.389-0.024c-0.007,0-0.014,0-0.021-0.001c-0.039-0.001-0.079-0.002-0.119-0.003
	c-0.011,0-0.022,0-0.033,0c-0.029,0-0.059-0.001-0.088-0.001H90.659c-8.469,0-15.359,6.89-15.359,15.359v482.035
	c0,8.053,6.551,14.605,14.605,14.605h333.52c7.318,0,13.273-5.954,13.273-13.274V273.502c0-4.142-3.358-7.5-7.5-7.5
	s-7.5,3.358-7.5,7.5v223.498H90.301V15.36c0-0.198,0.161-0.358,0.358-0.358h253.783v63.56c0,7.551,6.143,13.694,13.694,13.694h63.56
	v146.244C421.697,242.642,425.055,246,429.197,246z M359.444,77.256V25.61l51.646,51.646H359.444z"/>
<g>
</g>
<g>
</g>
<g>
</g>
<g>
</g>
<g>
</g>
<g>
</g>
<g>
</g>
<g>
</g>
<g>
</g>
<g>
</g>
<g>
</g>
<g>
</g>
<g>
</g>
<g>
</g>
<g>
</g>
</svg>
