<?xml version="1.0" encoding="iso-8859-1"?>
<!-- Generator: Adobe Illustrator 19.0.0, SVG Export Plug-In . SVG Version: 6.00 Build 0)  -->
<svg version="1.1" id="Capa_1" xmlns="http://www.w3.org/2000/svg" xmlns:xlink="http://www.w3.org/1999/xlink" x="0px" y="0px"
	 viewBox="0 0 512 512" style="enable-background:new 0 0 512 512;" xml:space="preserve">
<path style="fill:#FCCE99;" d="M512,197.318v227.99H0v-227.99c0-2.41,1.07-4.57,2.76-6.03c1.4-1.23,3.24-1.97,5.25-1.97h495.98
	c2.01,0,3.85,0.74,5.25,1.97C510.93,192.748,512,194.908,512,197.318z"/>
<path style="fill:#E8A96B;" d="M512,197.318v227.99H0v-227.99c0-2.41,1.07-4.57,2.76-6.03c1.4-1.23,3.24-1.97,5.25-1.97h18.54
	L256,353.518l229.45-164.2h18.54c2.01,0,3.85,0.74,5.25,1.97C510.93,192.748,512,194.908,512,197.318z"/>
<path style="fill:#D2E3F1;" d="M420.355,14.513V394.65H91.645V14.513c0-4.552,3.69-8.241,8.241-8.241h312.227
	C416.665,6.272,420.355,9.961,420.355,14.513z"/>
<g>
	<polygon style="fill:#A5C6E3;" points="420.355,235.899 420.355,394.65 91.645,394.65 91.645,235.899 256,353.515 	"/>
	<path style="fill:#A5C6E3;" d="M108.132,394.65V6.272h-8.241c-4.552,0-8.241,3.69-8.241,8.241V394.65H108.132z"/>
	<path style="fill:#A5C6E3;" d="M420.354,394.65V14.513c0-4.552-3.69-8.241-8.241-8.241h-8.241V394.65H420.354z"/>
</g>
<g>
	<path style="fill:#5A9BCC;" d="M366.746,166.465H215.348c-4.267,0-7.726-3.459-7.726-7.726s3.459-7.726,7.726-7.726h151.398
		c4.267,0,7.726,3.459,7.726,7.726S371.013,166.465,366.746,166.465z"/>
	<path style="fill:#5A9BCC;" d="M185.473,166.465h-40.216c-4.267,0-7.726-3.459-7.726-7.726s3.459-7.726,7.726-7.726h40.216
		c4.267,0,7.726,3.459,7.726,7.726S189.74,166.465,185.473,166.465z"/>
	<path style="fill:#5A9BCC;" d="M174.617,223.226h-29.36c-4.267,0-7.726-3.459-7.726-7.726s3.459-7.726,7.726-7.726h29.36
		c4.267,0,7.726,3.459,7.726,7.726S178.884,223.226,174.617,223.226z"/>
	<path style="fill:#5A9BCC;" d="M215.348,244.861h-70.091c-4.267,0-7.726-3.459-7.726-7.726s3.459-7.726,7.726-7.726h70.091
		c4.267,0,7.726,3.459,7.726,7.726S219.615,244.861,215.348,244.861z"/>
</g>
<path style="fill:#FFF4EB;" d="M512,199.318v298.17c0,4.551-3.689,8.24-8.24,8.24H8.24c-4.551,0-8.24-3.689-8.24-8.24v-300.17
	c0-2.41,1.07-4.57,2.76-6.03l248.44,177.8c2.87,2.05,6.73,2.05,9.6,0l248.44-177.8L512,199.318z"/>
<path style="fill:#FCCE99;" d="M512,197.318v300.16c0,4.56-3.69,8.25-8.24,8.25h-13.39c4.55,0,8.24-3.69,8.24-8.25v-298.58
	l10.63-7.61C510.93,192.748,512,194.908,512,197.318z"/>
<path style="fill:#7A50B4;" d="M459.252,464.81h-71.615c-4.552,0-8.241-3.69-8.241-8.241V422.25c0-4.552,3.69-8.241,8.241-8.241
	h71.615c4.552,0,8.241,3.69,8.241,8.241v34.319C467.494,461.121,463.804,464.81,459.252,464.81z"/>
<g>
	<path style="fill:#FCCE99;" d="M467.493,392.278h-33.272c-4.267,0-7.726-3.459-7.726-7.726s3.459-7.726,7.726-7.726h33.272
		c4.267,0,7.726,3.459,7.726,7.726C475.22,388.819,471.761,392.278,467.493,392.278z"/>
	<path style="fill:#FCCE99;" d="M467.493,372.428h-9.578c-4.267,0-7.726-3.459-7.726-7.726s3.459-7.726,7.726-7.726h9.578
		c4.267,0,7.726,3.459,7.726,7.726C475.22,368.968,471.761,372.428,467.493,372.428z"/>
	<path style="fill:#FCCE99;" d="M152.44,472.537H47.341c-4.267,0-7.726-3.459-7.726-7.726s3.459-7.726,7.726-7.726H152.44
		c4.267,0,7.726,3.459,7.726,7.726S156.707,472.537,152.44,472.537z"/>
</g>
<g>
	<path style="fill:#7A50B4;" d="M220.448,43.793H196.41c-4.267,0-7.726,3.459-7.726,7.726s3.459,7.726,7.726,7.726h16.312v40.146
		c0,3.828-3.114,6.943-6.942,6.943h-1.65c-3.828,0-6.942-3.115-6.942-6.943c0-4.267-3.459-7.726-7.726-7.726
		s-7.726,3.459-7.726,7.726c0,12.349,10.046,22.395,22.395,22.395h1.65c12.349,0,22.395-10.047,22.395-22.395V51.52
		C228.174,47.252,224.715,43.793,220.448,43.793z"/>
	<path style="fill:#7A50B4;" d="M254.376,43.793c-12.857,0-23.316,10.46-23.316,23.316V98.47c0,12.857,10.46,23.316,23.316,23.316
		c12.857,0,23.316-10.46,23.316-23.316V67.11C277.693,54.253,267.233,43.793,254.376,43.793z M262.24,98.471
		c0,4.336-3.528,7.864-7.864,7.864c-4.336,0-7.864-3.528-7.864-7.864V67.11c0-4.336,3.528-7.864,7.864-7.864
		c4.336,0,7.864,3.528,7.864,7.864V98.471z"/>
	<path style="fill:#7A50B4;" d="M319.803,76.018c1.863-3.175,2.951-6.858,2.951-10.798c0-11.815-9.612-21.427-21.427-21.427h-12.899
		c-4.267,0-7.726,3.459-7.726,7.726v62.541c0,4.267,3.459,7.726,7.726,7.726h16.542c13.949,0,25.297-11.348,25.297-25.296
		C330.266,88.08,326.137,80.62,319.803,76.018z M307.301,65.22c0,3.294-2.68,5.974-5.974,5.974h-5.173V59.246h5.173
		C304.621,59.246,307.301,61.926,307.301,65.22z M304.969,106.334h-8.815V86.647h5.173h3.643c5.428,0,9.844,4.416,9.844,9.844
		C314.813,101.918,310.397,106.334,304.969,106.334z"/>
	<circle style="fill:#7A50B4;" cx="315.03" cy="233.94" r="32.29"/>
</g>
<g>
</g>
<g>
</g>
<g>
</g>
<g>
</g>
<g>
</g>
<g>
</g>
<g>
</g>
<g>
</g>
<g>
</g>
<g>
</g>
<g>
</g>
<g>
</g>
<g>
</g>
<g>
</g>
<g>
</g>
</svg>
